<?xml version="1.0" encoding="UTF-8" standalone="no"?>
<svg
   width="24"
   height="24"
   viewBox="0 0 24 24"
   fill="none"
   stroke="currentColor"
   stroke-width="2"
   stroke-linecap="round"
   stroke-linejoin="round"
   class="feather feather-x-circle"
   version="1.1"
   id="svg11069"
   sodipodi:docname="x-circle.svg"
   inkscape:version="1.2.1 (9c6d41e410, 2022-07-14)"
   xmlns:inkscape="http://www.inkscape.org/namespaces/inkscape"
   xmlns:sodipodi="http://sodipodi.sourceforge.net/DTD/sodipodi-0.dtd"
   xmlns="http://www.w3.org/2000/svg"
   xmlns:svg="http://www.w3.org/2000/svg">
  <defs
     id="defs11073" />
  <sodipodi:namedview
     id="namedview11071"
     pagecolor="#ffffff"
     bordercolor="#666666"
     borderopacity="1.0"
     inkscape:showpageshadow="2"
     inkscape:pageopacity="0.0"
     inkscape:pagecheckerboard="0"
     inkscape:deskcolor="#d1d1d1"
     showgrid="false"
     inkscape:zoom="34.875"
     inkscape:cx="6.5089606"
     inkscape:cy="12.014337"
     inkscape:window-width="1920"
     inkscape:window-height="1017"
     inkscape:window-x="-8"
     inkscape:window-y="-8"
     inkscape:window-maximized="1"
     inkscape:current-layer="svg11069" />
  <circle
     cx="12"
     cy="12"
     r="10"
     id="circle11063" />
  <line
     x1="15"
     y1="9"
     x2="9"
     y2="15"
     id="line11065" />
  <line
     x1="9"
     y1="9"
     x2="15"
     y2="15"
     id="line11067" />
  <path
     style="fill:#ffffff;stroke:#000000;stroke-width:0.0573477;fill-opacity:1"
     d="M 11.082437,22.951602 C 8.0523163,22.674319 5.3286546,21.224712 3.4471716,18.887905 1.3914508,16.334694 0.58666908,13.039028 1.2330367,9.8207885 2.0657601,5.674691 5.23705,2.3647652 9.3632754,1.3351288 10.26119,1.1110681 10.945015,1.0326112 12,1.0326112 c 0.874432,0 1.168794,0.022733 1.878136,0.145043 4.690977,0.8088539 8.347558,4.5886644 9.001659,9.3050218 0.257302,1.855262 0.03011,3.791578 -0.647304,5.516888 -1.296462,3.301959 -4.120316,5.790595 -7.549431,6.653245 -0.418553,0.105294 -1.019265,0.214837 -1.493096,0.272275 -0.353644,0.04287 -1.738441,0.06029 -2.107527,0.02652 z m 1.871784,-1.991995 c 1.906607,-0.198633 3.694049,-1.004046 5.131692,-2.312318 1.448471,-1.318125 2.449315,-3.139647 2.785862,-5.070228 0.104201,-0.597748 0.128444,-0.895398 0.128444,-1.577061 0,-1.089094 -0.141174,-1.949911 -0.48369,-2.9493276 C 19.51822,6.1377373 17.016356,3.8934191 14.007168,3.2113943 13.265428,3.0432807 12.958044,3.0128752 12,3.0128519 11.03744,3.0128284 10.757731,3.0405219 9.9968009,3.2111845 7.5974922,3.7493056 5.4787361,5.3038569 4.2182862,7.4509348 2.7554577,9.942749 2.5888824,13.043925 3.775812,15.688592 c 0.9212185,2.052621 2.6109917,3.714633 4.6686324,4.591932 0.8463384,0.360846 1.6808636,0.581192 2.5665456,0.677664 0.497672,0.05421 1.429988,0.05489 1.943231,0.0014 z"
     id="path11082" />
  <path
     style="fill:#ffffff;fill-opacity:1;stroke:#000000;stroke-width:0.0573477"
     d="M 8.6815157,15.931345 C 8.4990987,15.863567 8.4004738,15.795431 8.2604669,15.640461 8.0918954,15.453872 8.0337875,15.294385 8.0310372,15.010753 8.0268501,14.578943 8.0062421,14.606054 9.3987467,13.21147 L 10.608409,12 9.3987467,10.78853 C 8.0071567,9.394862 8.0275766,9.4217067 8.0300908,8.9892473 8.0311768,8.8024518 8.0460347,8.7136448 8.093698,8.6090624 8.1803575,8.4189143 8.3930666,8.2017572 8.5841896,8.108314 8.7213535,8.0412522 8.7820285,8.0293798 8.9892473,8.0290554 9.4224245,8.0283773 9.3958687,8.0081619 10.78853,9.3987467 L 12,10.608409 13.21147,9.3987467 c 1.392661,-1.3905848 1.366106,-1.3703694 1.799283,-1.3696913 0.207219,3.244e-4 0.267894,0.012197 0.405057,0.079259 0.191123,0.093443 0.403832,0.3106003 0.490492,0.5007484 0.04766,0.1045824 0.06252,0.1933894 0.06361,0.3801849 0.0025,0.4324594 0.02293,0.4056147 -1.368656,1.7992823 L 13.391591,12 l 1.209662,1.21147 c 1.390585,1.392661 1.37037,1.366106 1.369692,1.799283 -3.24e-4,0.207219 -0.0122,0.267894 -0.07926,0.405057 -0.09344,0.191123 -0.3106,0.403832 -0.500748,0.490492 -0.104583,0.04766 -0.19339,0.06252 -0.380185,0.06361 -0.43246,0.0025 -0.405615,0.02293 -1.799283,-1.368656 L 12,13.391591 10.78853,14.601253 c -1.063765,1.062179 -1.2322536,1.219137 -1.3819437,1.287365 -0.2283656,0.10409 -0.514533,0.120952 -0.7250706,0.04273 z"
     id="path11702" />
</svg>
